HIERARCHY
ROOT Hips
{
	OFFSET -0.001795 -0.223333 0.028219
	CHANNELS 6 Xposition Yposition Zposition Zrotation Yrotation Xrotation 
	JOINT LeftUpLeg
	{
		OFFSET 0.069520 -0.091406 -0.006815
		CHANNELS 3 Zrotation Yrotation Xrotation
		JOINT LeftLeg
		{
			OFFSET 0.034277 -0.375199 -0.004496
			CHANNELS 3 Zrotation Yrotation Xrotation
			JOINT LeftFoot
			{
				OFFSET -0.013596 -0.397961 -0.043693
				CHANNELS 3 Zrotation Yrotation Xrotation
				JOINT LeftToe
				{
					OFFSET 0.026358 -0.055791 0.119288
					CHANNELS 3 Zrotation Yrotation Xrotation
					End Site
					{
						OFFSET 0.000000 0.000000 0.000000
					}
				}
			}
		}
	}
	JOINT RightUpLeg
	{
		OFFSET -0.067670 -0.090522 -0.004320
		CHANNELS 3 Zrotation Yrotation Xrotation
		JOINT RightLeg
		{
			OFFSET -0.038290 -0.382569 -0.008850
			CHANNELS 3 Zrotation Yrotation Xrotation
			JOINT RightFoot
			{
				OFFSET 0.015774 -0.398415 -0.042312
				CHANNELS 3 Zrotation Yrotation Xrotation
				JOINT RightToe
				{
					OFFSET -0.025372 -0.048144 0.123348
					CHANNELS 3 Zrotation Yrotation Xrotation
					End Site
					{
						OFFSET 0.000000 0.000000 0.000000
					}
				}
			}
		}
	}
	JOINT Spine
	{
		OFFSET -0.002533 0.108963 -0.026696
		CHANNELS 3 Zrotation Yrotation Xrotation
		JOINT Spine1
		{
			OFFSET 0.005487 0.135180 0.001092
			CHANNELS 3 Zrotation Yrotation Xrotation
			JOINT Spine2
			{
				OFFSET 0.001457 0.052922 0.025425
				CHANNELS 3 Zrotation Yrotation Xrotation
				JOINT Neck
				{
					OFFSET -0.002778 0.213870 -0.042857
					CHANNELS 3 Zrotation Yrotation Xrotation
					JOINT Head
					{
						OFFSET 0.005152 0.064970 0.051349
						CHANNELS 3 Zrotation Yrotation Xrotation
						End Site
						{
							OFFSET 0.000000 0.000000 0.000000
						}
					}
				}
				JOINT LeftShoulder
				{
					OFFSET 0.078845 0.121749 -0.034090
					CHANNELS 3 Zrotation Yrotation Xrotation
					JOINT LeftArm
					{
						OFFSET 0.090977 0.030469 -0.008868
						CHANNELS 3 Zrotation Yrotation Xrotation
						JOINT LeftForeArm
						{
							OFFSET 0.259612 -0.012772 -0.027456
							CHANNELS 3 Zrotation Yrotation Xrotation
							JOINT LeftHand
							{
								OFFSET 0.249234 0.008986 -0.001171
								CHANNELS 3 Zrotation Yrotation Xrotation
								End Site
								{
									OFFSET 0.000000 0.000000 0.000000
								}
							}
						}
					}
				}
				JOINT RightShoulder
				{
					OFFSET -0.081759 0.118833 -0.038615
					CHANNELS 3 Zrotation Yrotation Xrotation
					JOINT RightArm
					{
						OFFSET -0.096012 0.032551 -0.009143
						CHANNELS 3 Zrotation Yrotation Xrotation
						JOINT RightForeArm
						{
							OFFSET -0.253742 -0.013329 -0.021401
							CHANNELS 3 Zrotation Yrotation Xrotation
							JOINT RightHand
							{
								OFFSET -0.255298 0.007772 -0.005559
								CHANNELS 3 Zrotation Yrotation Xrotation
								End Site
								{
									OFFSET 0.000000 0.000000 0.000000
								}
							}
						}
					}
				}
			}
		}
	}
}
MOTION
Frames: 11
Frame Time: 0.050000
0.000000 0.591510 0.000000 -4.765488 -3.401972 29.867641 8.121116 2.061891 46.643539 -9.750796 -0.652365 -69.979662 70.794387 21.221236 127.040918 0.000000 0.000000 0.000000 -13.148443 2.828863 43.419630 16.495600 6.564518 -68.429437 -70.772726 -23.961509 126.054950 0.000000 0.000000 0.000000 7.244461 2.519681 -26.430187 -4.511698 2.419049 -89.453492 2.854128 -3.251430 98.048545 8.228753 2.640511 -109.704156 0.000000 0.000000 0.000000 -26.237439 7.191710 2.378221 -27.933901 -18.123752 -15.217105 -13.841615 66.422227 -3.792973 0.000000 0.000000 0.000000 27.218388 -18.263221 -10.265189 47.797040 -5.348484 -24.970764 -37.357034 -56.145889 30.242517 0.000000 0.000000 0.000000 
-0.000318 0.597050 0.000102 -5.239464 -5.431296 29.789660 6.005429 3.608456 45.910620 -6.623431 1.518619 -67.387742 62.944590 21.292678 128.080141 0.000000 0.000000 0.000000 -14.573350 4.144869 42.709737 16.837708 7.243784 -67.984463 -67.591171 -23.794246 125.301062 0.000000 0.000000 0.000000 5.688697 2.220357 -23.907034 -5.543709 3.102461 -97.455832 3.045341 -8.456898 104.242222 -4.525348 2.703132 -112.981177 0.000000 0.000000 0.000000 -27.755753 9.119622 3.068725 -27.974183 -18.969479 -17.062467 -8.314836 60.205942 0.775312 0.000000 0.000000 0.000000 22.896535 -19.934039 -12.721177 49.193157 -7.787824 -27.532870 -40.804157 -50.573426 28.852204 0.000000 0.000000 0.000000 
-0.000507 0.604892 0.000271 -5.133149 -6.169863 29.964270 5.861634 3.826033 45.508145 -6.066027 2.030096 -67.136071 53.382230 21.016434 129.558630 0.000000 0.000000 0.000000 -14.599866 4.283552 41.513450 15.401442 6.634142 -67.386741 -64.656591 -22.929091 126.216731 0.000000 0.000000 0.000000 3.563054 2.379922 -26.317262 3.113351 6.898795 -95.823451 -0.664033 0.286167 109.431857 6.539227 3.123379 -116.300504 0.000000 0.000000 0.000000 -27.603732 9.731024 1.473114 -28.783057 -19.334488 -19.360214 -9.435024 55.260444 0.254763 0.000000 0.000000 0.000000 26.449359 -18.723749 -8.964063 46.775740 -2.168544 -28.289318 -33.191493 -52.350769 27.637238 0.000000 0.000000 0.000000 
-0.000728 0.608492 -0.000629 -5.799068 -7.996176 30.315390 4.210663 5.142793 45.505279 -5.920019 2.534488 -66.226613 55.196781 23.214398 124.720781 0.000000 0.000000 0.000000 -16.031081 5.441754 40.198343 15.737079 7.265695 -66.884394 -60.924381 -22.213220 126.620119 0.000000 0.000000 0.000000 4.042393 2.377699 -24.388848 -0.034179 6.485332 -94.206619 1.813397 -3.563138 104.789385 2.624457 2.918106 -114.339936 0.000000 0.000000 0.000000 -29.949164 12.437530 0.220733 -27.091590 -16.052459 -17.824305 -15.784471 52.680212 -3.978147 0.000000 0.000000 0.000000 25.494908 -20.092337 -12.265887 45.865185 -5.862150 -25.971761 -32.432991 -51.536243 23.554634 0.000000 0.000000 0.000000 
-0.000732 0.616394 -0.002133 -4.566163 -6.266763 30.833692 5.013528 3.864500 42.987351 -6.012497 2.018213 -64.381647 52.056916 22.567879 125.449266 0.000000 0.000000 0.000000 -14.045659 3.847580 39.353665 13.471632 5.584631 -66.758727 -62.969421 -22.248464 127.203522 0.000000 0.000000 0.000000 3.118508 2.232462 -25.729530 2.375875 6.548408 -94.650058 0.326276 -0.204218 108.128181 10.448336 3.416735 -117.394732 0.000000 0.000000 0.000000 -28.965401 12.826082 -0.753555 -28.001425 -14.031322 -19.713546 -19.095191 54.022569 -5.536021 0.000000 0.000000 0.000000 30.110265 -20.525813 -11.256151 42.579861 -4.199651 -26.719859 -34.012137 -50.746917 25.226195 0.000000 0.000000 0.000000 
-0.000265 0.619389 -0.004624 -5.325584 -7.241752 31.305212 4.362532 4.328562 42.447060 -4.791920 2.952810 -65.034586 50.269551 21.926361 128.154895 0.000000 0.000000 0.000000 -15.370825 4.583410 37.277019 14.831477 6.212630 -64.227719 -59.375035 -22.100281 126.548519 0.000000 0.000000 0.000000 4.455744 2.339179 -24.725247 2.278959 7.410562 -95.899403 2.039551 0.175482 109.186147 13.251704 3.238511 -117.735609 0.000000 0.000000 0.000000 -29.013817 13.975471 -2.281032 -28.831140 -12.134111 -20.196728 -23.822993 58.125500 -8.508308 0.000000 0.000000 0.000000 29.872936 -21.904759 -11.956214 42.594241 -6.168829 -27.344946 -37.756372 -48.917256 26.809221 0.000000 0.000000 0.000000 
0.000428 0.623436 -0.007503 -4.305145 -5.838968 32.080947 4.578997 3.544636 40.209565 -4.242239 2.796203 -63.627243 47.419710 21.594598 128.389361 0.000000 0.000000 0.000000 -14.301916 3.708524 37.188507 14.193456 5.545441 -64.987589 -60.902420 -23.290799 124.781061 0.000000 0.000000 0.000000 3.722290 2.142930 -25.190829 1.254265 6.139891 -95.552625 2.337651 -0.009964 109.553686 15.743137 3.362735 -118.237894 0.000000 0.000000 0.000000 -27.759612 14.537069 -3.047305 -30.932883 -10.148244 -21.456172 -29.331188 64.601057 -11.770322 0.000000 0.000000 0.000000 30.354496 -21.676609 -11.349054 43.074444 -6.532328 -28.032484 -43.982865 -49.638243 32.061760 0.000000 0.000000 0.000000 
0.001157 0.623657 -0.009850 -3.880198 -4.780637 32.950305 4.998049 2.983684 39.159450 -4.028535 2.653322 -63.654260 44.712724 21.467006 127.945333 0.000000 0.000000 0.000000 -13.941289 3.240146 36.278141 13.808602 4.984049 -64.834208 -59.107809 -22.813385 125.900942 0.000000 0.000000 0.000000 3.065874 1.996821 -25.657855 2.089685 5.986465 -96.170001 1.738939 1.000985 111.281244 21.366381 3.859156 -118.669083 0.000000 0.000000 0.000000 -26.842480 16.311575 -5.030778 -32.603221 -8.959834 -22.824980 -33.754010 71.871217 -15.247894 0.000000 0.000000 0.000000 29.444327 -21.811702 -10.704292 44.143023 -7.359044 -29.471596 -52.254485 -50.413034 39.794547 0.000000 0.000000 0.000000 
0.001731 0.624264 -0.011269 -3.065457 -3.468835 33.481380 5.860628 2.256768 38.684407 -4.670752 2.001783 -63.870567 41.026951 21.516736 126.351572 0.000000 0.000000 0.000000 -13.510957 2.740270 36.404570 13.751633 4.575668 -65.590988 -58.866701 -22.996017 126.063930 0.000000 0.000000 0.000000 2.439211 1.781560 -25.796980 1.106794 4.918956 -97.492989 1.552952 0.304038 112.615827 22.880154 3.944883 -118.404319 0.000000 0.000000 0.000000 -25.738191 17.325534 -5.845052 -34.710585 -6.616291 -24.458889 -37.115186 76.452941 -17.399943 0.000000 0.000000 0.000000 27.189793 -22.212152 -11.030112 46.780040 -9.902587 -31.410101 -58.813602 -49.610449 45.561596 0.000000 0.000000 0.000000 
0.002022 0.624896 -0.011801 -2.712651 -2.594369 33.873802 6.954418 1.570618 38.485903 -5.009373 1.644242 -64.013749 33.782645 21.460284 125.536795 0.000000 0.000000 0.000000 -13.005621 2.301725 36.047726 13.738788 4.174267 -64.365572 -57.407512 -23.967984 123.727728 0.000000 0.000000 0.000000 2.674469 1.765046 -26.570329 -0.117801 3.839377 -97.181774 1.635686 -0.633531 113.601047 25.539301 4.353552 -118.841118 0.000000 0.000000 0.000000 -26.174103 18.485939 -6.566708 -35.740510 -5.704423 -25.750296 -42.154658 79.979479 -21.070033 0.000000 0.000000 0.000000 25.690228 -22.482842 -11.412967 48.437122 -11.696372 -33.069062 -63.659686 -47.949030 49.134029 0.000000 0.000000 0.000000 
0.001970 0.626081 -0.011823 -2.501454 -1.832951 34.342953 7.710122 1.087601 38.668805 -5.772541 1.108291 -64.686701 31.435601 21.747675 122.492846 0.000000 0.000000 0.000000 -12.340126 1.849882 36.590280 12.897046 3.597744 -65.168824 -51.772846 -24.055753 122.404663 0.000000 0.000000 0.000000 2.307128 1.695080 -27.327309 -0.316065 3.341362 -97.294265 1.082895 -0.660529 114.325675 27.248324 4.593119 -118.916806 0.000000 0.000000 0.000000 -25.735054 19.594542 -7.462117 -37.032512 -3.871641 -27.117854 -25.793052 81.978413 -6.237297 0.000000 0.000000 0.000000 24.955559 -22.801364 -11.720649 49.751951 -13.122053 -34.366755 -66.123661 -45.953226 50.579679 0.000000 0.000000 0.000000 
